<?xml version="1.0" encoding="utf-8"?>
<!-- Generator: Adobe Illustrator 16.0.0, SVG Export Plug-In . SVG Version: 6.00 Build 0)  -->
<!DOCTYPE svg PUBLIC "-//W3C//DTD SVG 1.1//EN" "http://www.w3.org/Graphics/SVG/1.1/DTD/svg11.dtd">
<svg version="1.1" id="Layer_1" xmlns="http://www.w3.org/2000/svg" xmlns:xlink="http://www.w3.org/1999/xlink" x="0px" y="0px"
	 width="200px" height="40px" viewBox="0 0 200 40" enable-background="new 0 0 200 40" xml:space="preserve">
<g>
	<path fill="#4373B9" d="M40,20C40,8.954,31.046,0,20,0S0,8.954,0,20c0,9.982,7.313,18.257,16.875,19.757V25.781h-5.078V20h5.078
		v-4.406c0-5.013,2.986-7.781,7.555-7.781c2.188,0,4.477,0.391,4.477,0.391v4.922h-2.521c-2.485,0-3.26,1.542-3.26,3.124V20h5.547
		l-0.887,5.781h-4.66v13.976C32.687,38.257,40,29.982,40,20z"/>
	<path fill="#FFFFFF" d="M27.785,25.781L28.672,20h-5.547v-3.751c0-1.582,0.774-3.124,3.26-3.124h2.521V8.203
		c0,0-2.289-0.391-4.477-0.391c-4.569,0-7.555,2.769-7.555,7.781V20h-5.078v5.781h5.078v13.976c2.071,0.324,4.18,0.324,6.25,0
		V25.781H27.785z"/>
</g>
<g id="Page-1">
	<g id="social_round_instagram">
		<g id="Group">
			<g id="Instagram_logo_2016-Clipped">
				<g id="path-1_1_">
				</g>
				<defs>
					<filter id="Adobe_OpacityMaskFilter" filterUnits="userSpaceOnUse" x="39.996" y="0" width="40.008" height="39.996">
						<feColorMatrix  type="matrix" values="1 0 0 0 0  0 1 0 0 0  0 0 1 0 0  0 0 0 1 0"/>
					</filter>
				</defs>
				<mask maskUnits="userSpaceOnUse" x="39.996" y="0" width="40.008" height="39.996" id="mask-2_1_">
					<g filter="url(#Adobe_OpacityMaskFilter)">
						<path id="path-1_2_" fill="#FFFFFF" d="M59.996,0L59.996,0c11.046,0,20,8.954,20,20l0,0c0,11.046-8.954,20-20,20l0,0
							c-11.046,0-20-8.954-20-20l0,0C39.996,8.954,48.95,0,59.996,0z"/>
					</g>
				</mask>
				<g id="Instagram_logo_2016" mask="url(#mask-2_1_)">
					
						<radialGradient id="Path_2_" cx="-16.1104" cy="414.748" r="0.9911" gradientTransform="matrix(2.449085e-015 -39.9966 -39.9966 -2.449086e-015 16639.1563 -601.2813)" gradientUnits="userSpaceOnUse">
						<stop  offset="0" style="stop-color:#FEDD56"/>
						<stop  offset="0.1" style="stop-color:#FEDD56"/>
						<stop  offset="0.5" style="stop-color:#F15843"/>
						<stop  offset="1" style="stop-color:#BB469A"/>
					</radialGradient>
					<path id="Path" fill="url(#Path_2_)" d="M60.006,0c-8.351,0-10.793,0.009-11.269,0.048c-1.714,0.143-2.78,0.413-3.942,0.991
						c-0.896,0.445-1.602,0.96-2.298,1.683c-1.27,1.317-2.039,2.938-2.317,4.865c-0.135,0.936-0.174,1.126-0.183,5.904
						c-0.003,1.593,0,3.689,0,6.5c0,8.345,0.009,10.785,0.049,11.259c0.139,1.667,0.4,2.717,0.954,3.864
						c1.059,2.197,3.08,3.847,5.462,4.462c0.824,0.212,1.735,0.329,2.904,0.385c0.496,0.021,5.545,0.036,10.597,0.036
						c5.052,0,10.104-0.006,10.587-0.03c1.354-0.063,2.141-0.169,3.01-0.394c2.396-0.619,4.382-2.243,5.462-4.471
						c0.543-1.12,0.818-2.209,0.942-3.79c0.027-0.345,0.039-5.839,0.039-11.326c0-5.488-0.012-10.973-0.039-11.317
						c-0.127-1.606-0.402-2.686-0.963-3.828c-0.459-0.935-0.971-1.632-1.712-2.346c-1.323-1.264-2.942-2.033-4.87-2.311
						C71.484,0.048,71.299,0.008,66.518,0H60.006z"/>
					
						<radialGradient id="Path_3_" cx="2.2568" cy="416.2373" r="0.4433" gradientTransform="matrix(7.8525 39.2182 39.2182 -7.8525 -16308.5938 3182.9063)" gradientUnits="userSpaceOnUse">
						<stop  offset="0" style="stop-color:#4270B7"/>
						<stop  offset="0.128" style="stop-color:#4270B7"/>
						<stop  offset="1" style="stop-color:#5E53A3;stop-opacity:0"/>
					</radialGradient>
					<path id="Path_1_" fill="url(#Path_3_)" d="M60.006,0c-8.351,0-10.793,0.009-11.269,0.048c-1.714,0.143-2.78,0.413-3.942,0.991
						c-0.896,0.445-1.602,0.96-2.298,1.683c-1.27,1.317-2.039,2.938-2.317,4.865c-0.135,0.936-0.174,1.126-0.183,5.904
						c-0.003,1.593,0,3.689,0,6.5c0,8.345,0.009,10.785,0.049,11.259c0.139,1.667,0.4,2.717,0.954,3.864
						c1.059,2.197,3.08,3.847,5.462,4.462c0.824,0.212,1.735,0.329,2.904,0.385c0.496,0.021,5.545,0.036,10.597,0.036
						c5.052,0,10.104-0.006,10.587-0.03c1.354-0.063,2.141-0.169,3.01-0.394c2.396-0.619,4.382-2.243,5.462-4.471
						c0.543-1.12,0.818-2.209,0.942-3.79c0.027-0.345,0.039-5.839,0.039-11.326c0-5.488-0.012-10.973-0.039-11.317
						c-0.127-1.606-0.402-2.686-0.963-3.828c-0.459-0.935-0.971-1.632-1.712-2.346c-1.323-1.264-2.942-2.033-4.87-2.311
						C71.484,0.048,71.299,0.008,66.518,0H60.006z"/>
				</g>
			</g>
		</g>
		<g id="Group-8" transform="translate(6.750000, 7.000000)">
			<g id="Fill-1-Clipped">
				<g id="path-5_1_">
				</g>
				<defs>
					<filter id="Adobe_OpacityMaskFilter_1_" filterUnits="userSpaceOnUse" x="39.996" y="0.052" width="25.94" height="25.94">
						<feColorMatrix  type="matrix" values="1 0 0 0 0  0 1 0 0 0  0 0 1 0 0  0 0 0 1 0"/>
					</filter>
				</defs>
				<mask maskUnits="userSpaceOnUse" x="39.996" y="0.052" width="25.94" height="25.94" id="mask-6_1_">
					<g filter="url(#Adobe_OpacityMaskFilter_1_)">
						<polygon id="path-5_6_" fill="#FFFFFF" points="39.996,0.052 65.937,0.052 65.937,25.992 39.996,25.992 						"/>
					</g>
				</mask>
				<path id="Fill-1" mask="url(#mask-6_1_)" fill="#FFFFFF" d="M52.966,0.052c-3.522,0-3.964,0.015-5.348,0.078
					c-1.38,0.063-2.323,0.282-3.148,0.603c-0.853,0.332-1.576,0.775-2.297,1.496c-0.721,0.721-1.165,1.444-1.496,2.297
					c-0.321,0.825-0.54,1.768-0.603,3.148c-0.063,1.384-0.078,1.825-0.078,5.348s0.015,3.965,0.078,5.348
					c0.063,1.381,0.282,2.323,0.603,3.148c0.331,0.854,0.775,1.576,1.496,2.297c0.721,0.722,1.444,1.165,2.297,1.496
					c0.825,0.32,1.768,0.54,3.148,0.604c1.383,0.063,1.825,0.078,5.348,0.078c3.522,0,3.963-0.016,5.348-0.078
					c1.38-0.063,2.322-0.283,3.148-0.604c0.852-0.331,1.576-0.774,2.297-1.496c0.721-0.721,1.164-1.443,1.496-2.297
					c0.32-0.825,0.539-1.768,0.603-3.148c0.063-1.383,0.078-1.825,0.078-5.348s-0.015-3.964-0.078-5.348
					c-0.063-1.38-0.282-2.323-0.603-3.148c-0.332-0.853-0.775-1.576-1.496-2.297c-0.721-0.721-1.445-1.165-2.297-1.496
					c-0.826-0.321-1.769-0.54-3.148-0.603C56.93,0.066,56.488,0.052,52.966,0.052 M52.966,2.389c3.463,0,3.874,0.013,5.241,0.075
					c1.265,0.058,1.951,0.269,2.408,0.447c0.605,0.235,1.038,0.516,1.492,0.97c0.453,0.454,0.734,0.886,0.97,1.491
					c0.178,0.457,0.39,1.144,0.446,2.409c0.063,1.368,0.076,1.778,0.076,5.241s-0.014,3.873-0.076,5.241
					c-0.057,1.265-0.269,1.951-0.446,2.408c-0.235,0.605-0.517,1.038-0.97,1.491c-0.454,0.454-0.887,0.735-1.492,0.971
					c-0.457,0.178-1.144,0.389-2.408,0.446c-1.367,0.063-1.777,0.075-5.241,0.075s-3.874-0.013-5.241-0.075
					c-1.265-0.058-1.951-0.269-2.408-0.446c-0.605-0.235-1.038-0.517-1.491-0.971c-0.454-0.453-0.735-0.886-0.97-1.491
					c-0.178-0.457-0.389-1.144-0.447-2.408c-0.063-1.368-0.076-1.778-0.076-5.241s0.013-3.873,0.076-5.241
					c0.058-1.265,0.269-1.952,0.447-2.409c0.235-0.605,0.516-1.037,0.97-1.491c0.454-0.454,0.886-0.735,1.491-0.97
					c0.457-0.178,1.144-0.389,2.408-0.447C49.093,2.401,49.503,2.389,52.966,2.389"/>
			</g>
			<g id="Fill-4-Clipped">
				<g id="path-5_2_">
				</g>
				<defs>
					<filter id="Adobe_OpacityMaskFilter_2_" filterUnits="userSpaceOnUse" x="46.306" y="6.361" width="13.321" height="13.32">
						<feColorMatrix  type="matrix" values="1 0 0 0 0  0 1 0 0 0  0 0 1 0 0  0 0 0 1 0"/>
					</filter>
				</defs>
				<mask maskUnits="userSpaceOnUse" x="46.306" y="6.361" width="13.321" height="13.32" id="mask-8_1_">
					<g filter="url(#Adobe_OpacityMaskFilter_2_)">
						<polygon id="path-7_1_" fill="#FFFFFF" points="39.996,0.052 65.937,0.052 65.937,25.992 39.996,25.992 						"/>
					</g>
				</mask>
				<path id="Fill-4" mask="url(#mask-8_1_)" fill="#FFFFFF" d="M52.966,17.346c-2.388,0-4.323-1.937-4.323-4.324
					s1.936-4.323,4.323-4.323c2.387,0,4.323,1.936,4.323,4.323S55.354,17.346,52.966,17.346L52.966,17.346z M46.306,13.021
					c0,3.679,2.982,6.66,6.661,6.66s6.661-2.981,6.661-6.66c0-3.678-2.982-6.66-6.661-6.66S46.306,9.343,46.306,13.021z"/>
			</g>
			<g id="Fill-6-Clipped">
				<g id="path-5_3_">
				</g>
				<defs>
					<filter id="Adobe_OpacityMaskFilter_3_" filterUnits="userSpaceOnUse" x="58.334" y="4.542" width="3.112" height="3.112">
						<feColorMatrix  type="matrix" values="1 0 0 0 0  0 1 0 0 0  0 0 1 0 0  0 0 0 1 0"/>
					</filter>
				</defs>
				<mask maskUnits="userSpaceOnUse" x="58.334" y="4.542" width="3.112" height="3.112" id="mask-10_1_">
					<g filter="url(#Adobe_OpacityMaskFilter_3_)">
						<polygon id="path-9_1_" fill="#FFFFFF" points="39.996,0.052 65.937,0.052 65.937,25.992 39.996,25.992 						"/>
					</g>
				</mask>
				<path id="Fill-6" mask="url(#mask-10_1_)" fill="#FFFFFF" d="M61.446,6.098c0,0.86-0.696,1.556-1.557,1.556
					c-0.859,0-1.556-0.696-1.556-1.556c0-0.859,0.696-1.556,1.556-1.556C60.75,4.542,61.446,5.239,61.446,6.098"/>
			</g>
		</g>
	</g>
</g>
<g id="Page-1_1_">
	<g id="Pinterest-2-Copy">
		<g id="Pinterest">
			<g id="Group-4">
				<g id="Group-3">
					<path id="Fill-1_2_" fill="#FFFFFF" d="M100,2.857c10.257,0,18.571,8.315,18.571,18.572S110.257,40,100,40
						s-18.571-8.314-18.571-18.571S89.743,2.857,100,2.857"/>
					<path id="Fill-1_1_" fill="#E51E25" d="M80,19.983c0,8.471,5.253,15.708,12.673,18.618c-0.181-1.578-0.328-4.014,0.065-5.74
						c0.361-1.563,2.331-9.934,2.331-9.934s-0.591-1.201-0.591-2.96c0-2.78,1.609-4.852,3.611-4.852
						c1.708,0,2.527,1.283,2.527,2.813c0,1.71-1.083,4.276-1.657,6.661c-0.476,1.99,1.001,3.618,2.954,3.618
						c3.547,0,6.271-3.75,6.271-9.145c0-4.786-3.432-8.125-8.339-8.125c-5.68,0-9.012,4.26-9.012,8.668
						c0,1.711,0.656,3.553,1.477,4.556c0.164,0.197,0.181,0.378,0.131,0.575c-0.147,0.625-0.492,1.99-0.558,2.271
						c-0.082,0.361-0.295,0.444-0.673,0.263c-2.495-1.168-4.055-4.803-4.055-7.747c0-6.299,4.563-12.089,13.182-12.089
						c6.911,0,12.295,4.934,12.295,11.546c0,6.891-4.333,12.434-10.342,12.434c-2.019,0-3.923-1.053-4.563-2.303
						c0,0-1.001,3.816-1.248,4.754c-0.443,1.742-1.658,3.914-2.479,5.246C95.874,39.688,97.844,40,99.912,40
						c11.015,0,19.945-8.947,19.945-19.983C119.89,8.947,110.959,0,99.945,0C88.93,0,80,8.947,80,19.983z"/>
				</g>
			</g>
		</g>
	</g>
</g>
<g id="Page-1_2_">
	<g id="Twitter-Copy">
		<path id="Rectangle" fill="#439CD6" d="M180,0L180,0c11.046,0,20,8.954,20,20l0,0c0,11.046-8.954,20-20,20l0,0
			c-11.046,0-20-8.954-20-20l0,0C160,8.954,168.954,0,180,0z"/>
		<path id="twitter" fill="#FFFFFF" d="M193.297,12.427c-0.894,0.412-1.854,0.69-2.863,0.814c1.03-0.64,1.82-1.654,2.192-2.862
			c-0.964,0.592-2.029,1.023-3.167,1.254C188.552,10.628,187.256,10,185.82,10c-2.75,0-4.982,2.317-4.982,5.175
			c0,0.406,0.043,0.8,0.129,1.179c-4.143-0.216-7.815-2.274-10.275-5.409c-0.43,0.767-0.675,1.657-0.675,2.604
			c0,1.794,0.88,3.379,2.218,4.307c-0.816-0.025-1.586-0.261-2.259-0.646v0.063c0,2.508,1.718,4.601,4,5.074
			c-0.418,0.122-0.858,0.183-1.313,0.183c-0.32,0-0.635-0.031-0.938-0.092c0.635,2.055,2.475,3.552,4.656,3.592
			c-1.706,1.389-3.856,2.217-6.19,2.217c-0.402,0-0.801-0.023-1.189-0.071c2.206,1.466,4.827,2.323,7.641,2.323
			c9.17,0,14.183-7.885,14.183-14.724c0-0.225-0.004-0.45-0.013-0.671C191.785,14.375,192.631,13.465,193.297,12.427"/>
	</g>
</g>
<g id="Page-1_3_">
	<g id="YouTube-Copy">
		<path id="Rectangle-Copy" fill="#E51E25" d="M140,0L140,0c11.046,0,20,8.954,20,20l0,0c0,11.046-8.954,20-20,20l0,0
			c-11.046,0-20-8.954-20-20l0,0C120,8.954,128.954,0,140,0z"/>
		<path id="Fill-1_3_" fill="#FFFFFF" d="M153.016,13.811c-0.305-1.106-1.205-1.978-2.349-2.273C148.595,11,140.286,11,140.286,11
			s-8.31,0-10.382,0.537c-1.144,0.296-2.044,1.167-2.349,2.273C127,15.816,127,20,127,20s0,4.184,0.556,6.189
			c0.305,1.106,1.205,1.978,2.349,2.273C131.977,29,140.286,29,140.286,29s8.309,0,10.381-0.537
			c1.144-0.296,2.044-1.167,2.349-2.273c0.556-2.006,0.556-6.189,0.556-6.189S153.571,15.816,153.016,13.811"/>
		<polygon id="Fill-4_1_" fill="#EE3724" points="137.286,23.857 144.143,20 137.286,16.143 		"/>
	</g>
</g>
</svg>
